<svg xmlns="http://www.w3.org/2000/svg" width="220" height="220" viewBox="0 0 220 220" role="img" aria-label="original cat themed UI texture">
  <defs>
    <pattern id="paperDots" width="22" height="22" patternUnits="userSpaceOnUse">
      <circle cx="5" cy="5" r="1.4" fill="#ffffff" fill-opacity="0.14"/>
      <circle cx="17" cy="15" r="1" fill="#000000" fill-opacity="0.045"/>
    </pattern>
    <pattern id="softStripes" width="44" height="44" patternUnits="userSpaceOnUse" patternTransform="rotate(-12)">
      <rect x="0" y="0" width="5" height="44" fill="#ffffff" fill-opacity="0.065"/>
    </pattern>
  </defs>
  <rect width="220" height="220" fill="none"/>
  <rect width="220" height="220" fill="url(#paperDots)"/>
  <rect width="220" height="220" fill="url(#softStripes)"/>

  <g fill="none" stroke="#ffffff" stroke-opacity="0.18" stroke-linecap="round" stroke-linejoin="round" stroke-width="5">
    <path d="M36 74c0-29 22-48 51-48s51 19 51 48c0 31-24 51-51 51S36 105 36 74Z"/>
    <path d="M58 36 45 16l31 12"/>
    <path d="M116 36 129 16 98 28"/>
    <path d="M69 76h.1M105 76h.1"/>
    <path d="M81 91c8 7 15 7 23 0"/>
    <path d="M86 84v10"/>
    <path d="M143 143c11-17 38-17 49 0 8 13 5 31-8 39-13 9-33 9-46 0-13-8-16-26 5-39Z"/>
    <path d="M145 132c-6-14-2-24 7-27 10-3 17 6 17 19"/>
    <path d="M178 132c6-14 2-24-7-27-10-3-17 6-17 19"/>
  </g>

  <g fill="#ffffff" fill-opacity="0.16">
    <circle cx="45" cy="157" r="8"/>
    <circle cx="66" cy="148" r="7"/>
    <circle cx="85" cy="158" r="7"/>
    <ellipse cx="65" cy="178" rx="23" ry="16"/>
  </g>
</svg>
